<svg xmlns="http://www.w3.org/2000/svg" xmlns:xlink="http://www.w3.org/1999/xlink" width="400" zoomAndPan="magnify" viewBox="0 0 300 278.250005" height="371" preserveAspectRatio="xMidYMid meet" version="1.0"><defs><clipPath id="3bfd5d741d"><path d="M 0.402344 6 L 298 6 L 298 272 L 0.402344 272 Z M 0.402344 6 " clip-rule="nonzero"/></clipPath></defs><g clip-path="url(#3bfd5d741d)"><path fill="#00d8ff" d="M 245.0625 92.144531 C 241.898438 91.054688 238.703125 90.046875 235.484375 89.121094 C 236.027344 86.910156 236.523438 84.726562 236.964844 82.582031 C 244.214844 47.351562 239.476562 18.96875 223.285156 9.621094 C 207.761719 0.664062 182.375 10.003906 156.734375 32.339844 C 154.207031 34.546875 151.738281 36.8125 149.324219 39.144531 C 147.710938 37.59375 146.066406 36.074219 144.394531 34.585938 C 117.523438 10.707031 90.589844 0.640625 74.414062 10.011719 C 58.90625 19 54.3125 45.679688 60.839844 79.070312 C 61.492188 82.375 62.222656 85.667969 63.039062 88.9375 C 59.226562 90.019531 55.546875 91.175781 52.027344 92.402344 C 20.523438 103.398438 0.402344 120.628906 0.402344 138.5 C 0.402344 156.957031 22.003906 175.472656 54.816406 186.699219 C 57.476562 187.605469 60.160156 188.445312 62.859375 189.21875 C 61.984375 192.738281 61.203125 196.285156 60.523438 199.851562 C 54.300781 232.660156 59.160156 258.710938 74.628906 267.640625 C 90.605469 276.863281 117.417969 267.386719 143.527344 244.539062 C 145.644531 242.683594 147.714844 240.773438 149.734375 238.8125 C 152.347656 241.335938 155.03125 243.785156 157.78125 246.160156 C 183.070312 267.941406 208.046875 276.738281 223.5 267.78125 C 239.460938 258.535156 244.648438 230.546875 237.914062 196.5 C 237.382812 193.832031 236.789062 191.175781 236.128906 188.539062 C 238.011719 187.980469 239.859375 187.40625 241.664062 186.808594 C 275.777344 175.496094 297.972656 157.207031 297.972656 138.5 C 297.972656 120.5625 277.203125 103.21875 245.0625 92.144531 Z M 237.664062 174.730469 C 236.039062 175.269531 234.367188 175.789062 232.667969 176.296875 C 228.902344 164.363281 223.820312 151.671875 217.597656 138.5625 C 223.535156 125.761719 228.421875 113.238281 232.082031 101.378906 C 235.125 102.261719 238.078125 103.191406 240.925781 104.171875 C 268.464844 113.664062 285.261719 127.691406 285.261719 138.5 C 285.261719 150.015625 267.121094 164.960938 237.664062 174.730469 Z M 225.445312 198.96875 C 228.421875 214.027344 228.847656 227.636719 226.875 238.28125 C 225.101562 247.84375 221.539062 254.21875 217.128906 256.773438 C 207.753906 262.207031 187.699219 255.144531 166.070312 236.511719 C 163.515625 234.304688 161.019531 232.03125 158.589844 229.683594 C 166.972656 220.503906 175.355469 209.835938 183.53125 197.984375 C 197.917969 196.707031 211.507812 194.617188 223.832031 191.765625 C 224.425781 194.152344 224.964844 196.554688 225.445312 198.96875 Z M 101.851562 255.832031 C 92.6875 259.070312 85.390625 259.164062 80.980469 256.617188 C 71.59375 251.199219 67.691406 230.28125 73.015625 202.222656 C 73.648438 198.90625 74.371094 195.609375 75.1875 192.335938 C 87.375 195.035156 100.867188 196.976562 115.285156 198.144531 C 123.519531 209.742188 132.140625 220.402344 140.832031 229.734375 C 138.984375 231.523438 137.09375 233.265625 135.164062 234.960938 C 123.617188 245.0625 112.046875 252.226562 101.851562 255.832031 Z M 58.929688 174.660156 C 44.417969 169.695312 32.4375 163.242188 24.222656 156.203125 C 16.839844 149.878906 13.117188 143.597656 13.117188 138.5 C 13.117188 127.652344 29.269531 113.820312 56.210938 104.417969 C 59.480469 103.277344 62.902344 102.203125 66.457031 101.191406 C 70.179688 113.316406 75.0625 125.992188 80.957031 138.808594 C 74.988281 151.816406 70.03125 164.695312 66.273438 176.960938 C 63.804688 176.253906 61.359375 175.488281 58.929688 174.660156 Z M 73.316406 76.625 C 67.726562 48.019531 71.4375 26.441406 80.785156 21.023438 C 90.738281 15.257812 112.753906 23.480469 135.953125 44.101562 C 137.46875 45.449219 138.957031 46.824219 140.417969 48.226562 C 131.773438 57.519531 123.230469 68.097656 115.070312 79.625 C 101.074219 80.925781 87.679688 83.007812 75.363281 85.804688 C 74.605469 82.761719 73.921875 79.703125 73.316406 76.625 Z M 201.675781 108.351562 C 198.765625 103.320312 195.75 98.355469 192.625 93.457031 C 202.121094 94.65625 211.214844 96.253906 219.757812 98.203125 C 217.195312 106.429688 213.996094 115.03125 210.234375 123.851562 C 207.484375 118.628906 204.628906 113.460938 201.675781 108.351562 Z M 149.332031 57.320312 C 155.191406 63.679688 161.066406 70.777344 166.839844 78.480469 C 155.125 77.925781 143.386719 77.921875 131.671875 78.472656 C 137.453125 70.839844 143.375 63.75 149.332031 57.320312 Z M 96.652344 108.4375 C 93.730469 113.507812 90.929688 118.640625 88.25 123.839844 C 84.546875 115.050781 81.382812 106.410156 78.796875 98.066406 C 87.285156 96.167969 96.339844 94.613281 105.773438 93.433594 C 102.613281 98.363281 99.574219 103.363281 96.652344 108.4375 Z M 106.042969 184.472656 C 96.296875 183.382812 87.105469 181.910156 78.621094 180.058594 C 81.246094 171.566406 84.484375 162.742188 88.265625 153.765625 C 90.957031 158.96875 93.769531 164.105469 96.699219 169.175781 C 99.714844 174.390625 102.835938 179.496094 106.042969 184.472656 Z M 149.679688 220.574219 C 143.65625 214.070312 137.644531 206.871094 131.777344 199.128906 C 137.476562 199.351562 143.285156 199.46875 149.1875 199.46875 C 155.253906 199.46875 161.25 199.332031 167.148438 199.066406 C 161.355469 206.949219 155.503906 214.160156 149.679688 220.574219 Z M 210.355469 153.308594 C 214.332031 162.382812 217.683594 171.160156 220.347656 179.507812 C 211.71875 181.480469 202.40625 183.066406 192.589844 184.246094 C 195.734375 179.253906 198.78125 174.203125 201.722656 169.089844 C 204.71875 163.894531 207.597656 158.632812 210.355469 153.308594 Z M 190.714844 162.734375 C 186.207031 170.570312 181.445312 178.257812 176.4375 185.785156 C 167.367188 186.429688 158.28125 186.75 149.1875 186.746094 C 139.925781 186.746094 130.917969 186.457031 122.246094 185.894531 C 117.109375 178.382812 112.257812 170.679688 107.699219 162.800781 L 107.703125 162.800781 C 103.167969 154.96875 98.933594 146.960938 95.003906 138.804688 C 98.921875 130.644531 103.144531 122.636719 107.664062 114.792969 C 112.179688 106.949219 116.992188 99.28125 122.089844 91.804688 C 130.941406 91.132812 140.015625 90.785156 149.1875 90.785156 C 158.398438 90.785156 167.488281 91.136719 176.332031 91.8125 C 181.378906 99.277344 186.164062 106.921875 190.671875 114.726562 C 195.207031 122.550781 199.484375 130.519531 203.5 138.625 C 199.523438 146.808594 195.261719 154.851562 190.714844 162.734375 Z M 216.9375 20.644531 C 226.902344 26.398438 230.777344 49.59375 224.515625 80.011719 C 224.117188 81.953125 223.667969 83.929688 223.179688 85.933594 C 210.832031 83.082031 197.425781 80.960938 183.390625 79.640625 C 175.214844 67.988281 166.742188 57.390625 158.238281 48.21875 C 160.464844 46.070312 162.746094 43.972656 165.082031 41.9375 C 187.050781 22.800781 207.582031 15.246094 216.9375 20.644531 Z M 149.1875 111.902344 C 163.863281 111.902344 175.757812 123.8125 175.757812 138.5 C 175.757812 153.1875 163.863281 165.097656 149.1875 165.097656 C 134.511719 165.097656 122.617188 153.1875 122.617188 138.5 C 122.617188 123.8125 134.511719 111.902344 149.1875 111.902344 Z M 149.1875 111.902344 " fill-opacity="1" fill-rule="nonzero"/></g></svg>